<svg xmlns="http://www.w3.org/2000/svg" xmlns:svg="http://www.w3.org/2000/svg" xmlns:xlink="http://www.w3.org/1999/xlink" id="svg2" width="744.095" height="1052.362" xml:space="preserve"><metadata id="metadata7"/><defs id="defs5"><linearGradient id="linearGradient3383" x1="0" x2="1" y1="0" y2="0" gradientTransform="matrix(0,63.927689,63.927689,0,617.89844,876.97021)" gradientUnits="userSpaceOnUse" spreadMethod="pad"><stop id="stop3385" offset="0" stop-color="#fff" stop-opacity="1"/><stop id="stop3387" offset=".602" stop-color="#c8e5eb" stop-opacity="1"/><stop id="stop3389" offset="1" stop-color="#8cc5dd" stop-opacity="1"/></linearGradient><clipPath id="clipPath17" clipPathUnits="userSpaceOnUse"><path id="path19" d="M 0,841.89 L 595.276,841.89 L 595.276,0 L 0,0 L 0,841.89 z"/></clipPath><linearGradient id="linearGradient35" x1="0" x2="1" y1="0" y2="0" gradientTransform="matrix(0,150.40897,150.40897,0,225.60059,711.11328)" gradientUnits="userSpaceOnUse" spreadMethod="pad"><stop id="stop37" offset="0" stop-color="#fff" stop-opacity="1"/><stop id="stop39" offset=".747" stop-color="#c8e5eb" stop-opacity="1"/><stop id="stop41" offset="1" stop-color="#93c8de" stop-opacity="1"/></linearGradient><linearGradient id="linearGradient63" x1="0" x2="1" y1="0" y2="0" gradientTransform="matrix(0,150.41147,150.41147,0,212.05078,302.99219)" gradientUnits="userSpaceOnUse" spreadMethod="pad"><stop id="stop65" offset="0" stop-color="#fff" stop-opacity="1"/><stop id="stop67" offset=".747" stop-color="#c8e5eb" stop-opacity="1"/><stop id="stop69" offset="1" stop-color="#93c8de" stop-opacity="1"/></linearGradient><linearGradient id="linearGradient225" x1="0" x2="1" y1="0" y2="0" gradientTransform="matrix(0,63.927689,63.927689,0,617.89844,876.97021)" gradientUnits="userSpaceOnUse" spreadMethod="pad"><stop id="stop227" offset="0" stop-color="#fff" stop-opacity="1"/><stop id="stop229" offset=".747" stop-color="#c8e5eb" stop-opacity="1"/><stop id="stop231" offset="1" stop-color="#8cc5dd" stop-opacity="1"/></linearGradient><linearGradient id="linearGradient285" x1="0" x2="1" y1="0" y2="0" gradientTransform="matrix(0,63.927689,63.927689,0,781.45117,876.97021)" gradientUnits="userSpaceOnUse" spreadMethod="pad"><stop id="stop287" offset="0" stop-color="#fff" stop-opacity="1"/><stop id="stop289" offset=".747" stop-color="#c8e5eb" stop-opacity="1"/><stop id="stop291" offset="1" stop-color="#93c8de" stop-opacity="1"/></linearGradient><linearGradient id="linearGradient2834" x1="0" x2="1" y1="0" y2="0" gradientTransform="matrix(0,150.40897,150.40897,0,225.60059,711.11328)" gradientUnits="userSpaceOnUse" spreadMethod="pad" xlink:href="#linearGradient35"/><linearGradient id="linearGradient2836" x1="0" x2="1" y1="0" y2="0" gradientTransform="matrix(0,150.41147,150.41147,0,212.05078,302.99219)" gradientUnits="userSpaceOnUse" spreadMethod="pad" xlink:href="#linearGradient63"/><linearGradient id="linearGradient2840" x1="0" x2="1" y1="0" y2="0" gradientTransform="matrix(0,63.927689,63.927689,0,781.45117,876.97021)" gradientUnits="userSpaceOnUse" spreadMethod="pad" xlink:href="#linearGradient285"/><linearGradient id="linearGradient3381" x1="0" x2=".549" y1="0" y2="0" gradientTransform="matrix(0,63.927689,63.927689,0,617.89844,876.97021)" gradientUnits="userSpaceOnUse" spreadMethod="pad" xlink:href="#linearGradient3383"/></defs><g id="g11" transform="matrix(1.25,0,0,-1.25,0,1052.3625)"><path id="path21" fill="#007da7" fill-opacity="1" fill-rule="nonzero" stroke="none" d="M 143.396,540.859 C 129.466,540.859 112.374,550.726 105.405,562.788 L 51.664,655.87 C 44.695,667.938 44.695,687.675 51.664,699.736 L 105.405,792.826 C 112.374,804.888 129.466,814.763 143.396,814.763 L 250.879,814.763 C 264.816,814.763 281.91,804.888 288.871,792.826 L 342.613,699.736 C 349.574,687.675 349.574,667.938 342.613,655.87 L 288.871,562.788 C 281.91,550.726 264.816,540.859 250.879,540.859 L 143.396,540.859 z"/><g id="g23" transform="translate(-25.6,-212.8)"><g id="g25"><g id="g31"><g id="g33"><path id="path43" fill="url(#linearGradient2834)" stroke="none" d="M 171.861,655.573 C 157.932,655.573 140.838,658.735 133.87,662.597 L 80.129,692.396 C 73.16,696.257 73.16,702.573 80.129,706.437 L 133.87,736.241 C 140.838,740.103 157.932,743.257 171.861,743.257 L 279.344,743.257 C 293.281,743.257 310.374,740.103 317.336,736.241 L 371.077,706.437 C 378.039,702.573 378.039,696.257 371.077,692.396 L 317.336,662.597 C 310.374,658.735 293.281,655.573 279.344,655.573 L 171.861,655.573 z"/></g></g></g></g><text id="text45" x="108.174" y="-464.107" transform="scale(1,-1)"><tspan id="tspan47" x="108.174 136.533 162.511 188.489 212.128 235.768 261.746 273.565" y="-464.107" fill="#007da7" fill-opacity="1" fill-rule="nonzero" stroke="none" font-family="Arial" font-size="42.517" font-stretch="normal" font-variant="normal" font-weight="bold" writing-mode="lr-tb" style="-inkscape-font-specification:Arial-BoldMT">SFLvault</tspan></text><path id="path49" fill="#007da7" fill-opacity="1" fill-rule="nonzero" stroke="none" d="M 129.846,132.737 C 115.917,132.737 98.824,142.605 91.855,154.667 L 38.114,247.749 C 31.145,259.817 31.145,279.554 38.114,291.615 L 91.855,384.705 C 98.824,396.766 115.917,406.641 129.846,406.641 L 237.33,406.641 C 251.266,406.641 268.36,396.766 275.321,384.705 L 329.063,291.615 C 336.024,279.554 336.024,259.817 329.063,247.749 L 275.321,154.667 C 268.36,142.605 251.266,132.737 237.33,132.737 L 129.846,132.737 z"/><g id="g51" transform="translate(-25.6,-212.8)"><g id="g53"><g id="g59"><g id="g61"><path id="path71" fill="url(#linearGradient2836)" stroke="none" d="M 158.312,247.451 C 144.382,247.451 127.288,250.613 120.32,254.475 L 66.579,284.273 C 59.61,288.135 59.61,294.452 66.579,298.314 L 120.32,328.119 C 127.288,331.98 144.382,335.136 158.312,335.136 L 265.794,335.136 C 279.731,335.136 296.824,331.98 303.786,328.119 L 357.527,298.314 C 364.489,294.452 364.489,288.135 357.527,284.273 L 303.786,254.475 C 296.824,250.613 279.731,247.451 265.794,247.451 L 158.312,247.451 z"/></g></g></g></g><text id="text73" x="94.624" y="-55.985" transform="scale(1,-1)"><tspan id="tspan75" x="94.624 122.983 148.961 174.939 198.578 222.218 248.196 260.016" y="-55.985" fill="#007da7" fill-opacity="1" fill-rule="nonzero" stroke="none" font-family="Arial" font-size="42.517" font-stretch="normal" font-variant="normal" font-weight="bold" writing-mode="lr-tb" style="-inkscape-font-specification:Arial-BoldMT">SFLvault</tspan></text><path id="path77" fill="#fff" fill-opacity="1" fill-rule="nonzero" stroke="none" d="M 113.31,765.182 L 135.644,747.515 L 144.31,570.96 L 120.976,619.849 L 113.31,765.182 z"/><path id="path79" fill="none" stroke="#007da7" stroke-dasharray="none" stroke-linecap="butt" stroke-linejoin="miter" stroke-miterlimit="4" stroke-opacity="1" stroke-width="1" d="M 113.31,765.182 L 135.644,747.515 L 144.31,570.96 L 120.976,619.849 L 113.31,765.182 z"/><path id="path81" fill="#fff" fill-opacity="1" fill-rule="nonzero" stroke="none" d="M 136.976,747.515 L 145.31,570.96 L 283.976,589.848 L 287.31,754.848 L 136.976,747.515 z"/><path id="path83" fill="none" stroke="#007da7" stroke-dasharray="none" stroke-linecap="butt" stroke-linejoin="miter" stroke-miterlimit="4" stroke-opacity="1" stroke-width="1" d="M 136.976,747.515 L 145.31,570.96 L 283.976,589.848 L 287.31,754.848 L 136.976,747.515 z"/><path id="path85" fill="#fff" fill-opacity="1" fill-rule="nonzero" stroke="none" d="M 113.976,766.182 L 136.31,749.182 L 285.644,756.182 L 238.31,770.848 L 113.976,766.182 z"/><path id="path87" fill="none" stroke="#007da7" stroke-dasharray="none" stroke-linecap="butt" stroke-linejoin="miter" stroke-miterlimit="4" stroke-opacity="1" stroke-width="1" d="M 113.976,766.182 L 136.31,749.182 L 285.644,756.182 L 238.31,770.848 L 113.976,766.182 z"/><path id="path89" fill="#fff" fill-opacity="1" fill-rule="nonzero" stroke="none" d="M 99.76,357.061 L 122.094,339.394 L 130.76,162.839 L 107.426,211.728 L 99.76,357.061 z"/><path id="path91" fill="none" stroke="#007da7" stroke-dasharray="none" stroke-linecap="butt" stroke-linejoin="miter" stroke-miterlimit="4" stroke-opacity="1" stroke-width="1" d="M 99.76,357.061 L 122.094,339.394 L 130.76,162.839 L 107.426,211.728 L 99.76,357.061 z"/><path id="path93" fill="#fff" fill-opacity="1" fill-rule="nonzero" stroke="none" d="M 123.426,339.394 L 131.76,162.839 L 270.426,181.727 L 273.76,346.727 L 123.426,339.394 z"/><path id="path95" fill="none" stroke="#007da7" stroke-dasharray="none" stroke-linecap="butt" stroke-linejoin="miter" stroke-miterlimit="4" stroke-opacity="1" stroke-width="1" d="M 123.426,339.394 L 131.76,162.839 L 270.426,181.727 L 273.76,346.727 L 123.426,339.394 z"/><path id="path97" fill="#fff" fill-opacity="1" fill-rule="nonzero" stroke="none" d="M 100.426,358.061 L 122.76,341.061 L 272.094,348.061 L 224.76,362.727 L 100.426,358.061 z"/><path id="path99" fill="none" stroke="#007da7" stroke-dasharray="none" stroke-linecap="butt" stroke-linejoin="miter" stroke-miterlimit="4" stroke-opacity="1" stroke-width="1" d="M 100.426,358.061 L 122.76,341.061 L 272.094,348.061 L 224.76,362.727 L 100.426,358.061 z"/><path id="path101" fill="none" stroke="#007da7" stroke-dasharray="none" stroke-linecap="butt" stroke-linejoin="miter" stroke-miterlimit="4" stroke-opacity="1" stroke-width="1" d="M 147.644,733.298 L 272.976,740.515 L 271.644,602.056 L 153.644,583.682 L 147.644,733.298 z"/><path id="path103" fill="none" stroke="#007da7" stroke-dasharray="none" stroke-linecap="butt" stroke-linejoin="miter" stroke-miterlimit="4" stroke-opacity="1" stroke-width="1" d="M 134.094,325.177 L 259.426,332.394 L 258.094,193.935 L 140.094,175.561 L 134.094,325.177 z"/><path id="path105" fill="#fff" fill-opacity="1" fill-rule="nonzero" stroke="none" d="M 189.88,706.282 L 199.091,704.242 L 198.433,564.563 L 190.619,567.419 L 189.88,706.282 z"/><path id="path107" fill="none" stroke="#007da7" stroke-dasharray="none" stroke-linecap="butt" stroke-linejoin="miter" stroke-miterlimit="4" stroke-opacity="1" stroke-width="1" d="M 189.88,706.282 L 199.091,704.242 L 198.433,564.563 L 190.619,567.419 L 189.88,706.282 z"/><path id="path109" fill="#fff" fill-opacity="1" fill-rule="nonzero" stroke="none" d="M 269.81,719.848 L 269.81,709.848 L 280.81,709.848 L 286.478,713.848 L 286.478,725.181 L 281.478,720.515 L 269.81,719.848 z"/><path id="path111" fill="none" stroke="#007da7" stroke-dasharray="none" stroke-linecap="butt" stroke-linejoin="miter" stroke-miterlimit="4" stroke-opacity="1" stroke-width="1" d="M 269.81,719.848 L 269.81,709.848 L 280.81,709.848 L 286.478,713.848 L 286.478,725.181 L 281.478,720.515 L 269.81,719.848 z"/><path id="path113" fill="#fff" fill-opacity="1" fill-rule="nonzero" stroke="none" d="M 267.31,617.848 L 267.31,607.848 L 278.31,607.848 L 283.978,611.848 L 283.978,623.181 L 278.978,618.515 L 267.31,617.848 z"/><path id="path115" fill="none" stroke="#007da7" stroke-dasharray="none" stroke-linecap="butt" stroke-linejoin="miter" stroke-miterlimit="4" stroke-opacity="1" stroke-width="1" d="M 267.31,617.848 L 267.31,607.848 L 278.31,607.848 L 283.978,611.848 L 283.978,623.181 L 278.978,618.515 L 267.31,617.848 z"/><path id="path117" fill="#fff" fill-opacity="1" fill-rule="nonzero" stroke="none" d="M 189.924,708.162 L 201.74,705.868 L 259.306,725.595 L 252.451,725.673 L 189.924,708.162 z"/><path id="path119" fill="none" stroke="#007da7" stroke-dasharray="none" stroke-linecap="butt" stroke-linejoin="miter" stroke-miterlimit="4" stroke-opacity="1" stroke-width="1" d="M 189.924,708.162 L 201.74,705.868 L 259.306,725.595 L 252.451,725.673 L 189.924,708.162 z"/><path id="path121" fill="#fff" fill-opacity="1" fill-rule="nonzero" stroke="none" d="M 273.447,739.406 L 209.187,716.798 L 208.627,549.46 L 271.81,594.748 L 273.447,739.406 z"/><path id="path123" fill="none" stroke="#007da7" stroke-dasharray="none" stroke-linecap="butt" stroke-linejoin="miter" stroke-miterlimit="4" stroke-opacity="1" stroke-width="1" d="M 273.447,739.406 L 209.187,716.798 L 208.627,549.46 L 271.81,594.748 L 273.447,739.406 z"/><path id="path125" fill="#fff" fill-opacity="1" fill-rule="nonzero" stroke="none" d="M 196.904,721.317 L 209.916,718.791 L 273.31,740.515 L 265.761,740.601 L 196.904,721.317 z"/><path id="path127" fill="none" stroke="#007da7" stroke-dasharray="none" stroke-linecap="butt" stroke-linejoin="miter" stroke-miterlimit="4" stroke-opacity="1" stroke-width="1" d="M 196.904,721.317 L 209.916,718.791 L 273.31,740.515 L 265.761,740.601 L 196.904,721.317 z"/><path id="path129" fill="#fff" fill-opacity="1" fill-rule="nonzero" stroke="none" d="M 195.88,719.282 L 209.187,716.798 L 208.616,548.46 L 197.322,551.922 L 195.88,719.282 z"/><path id="path131" fill="none" stroke="#007da7" stroke-dasharray="none" stroke-linecap="butt" stroke-linejoin="miter" stroke-miterlimit="4" stroke-opacity="1" stroke-width="1" d="M 195.88,719.282 L 209.187,716.798 L 208.616,548.46 L 197.322,551.922 L 195.88,719.282 z"/><path id="path133" fill="#fff" fill-opacity="1" fill-rule="nonzero" stroke="none" d="M 256.26,311.727 L 256.26,301.727 L 267.26,301.727 L 272.928,305.727 L 272.928,317.06 L 267.928,312.394 L 256.26,311.727 z"/><path id="path135" fill="none" stroke="#007da7" stroke-dasharray="none" stroke-linecap="butt" stroke-linejoin="miter" stroke-miterlimit="4" stroke-opacity="1" stroke-width="1" d="M 256.26,311.727 L 256.26,301.727 L 267.26,301.727 L 272.928,305.727 L 272.928,317.06 L 267.928,312.394 L 256.26,311.727 z"/><path id="path137" fill="#fff" fill-opacity="1" fill-rule="nonzero" stroke="none" d="M 253.76,209.727 L 253.76,199.727 L 264.76,199.727 L 270.428,203.727 L 270.428,215.06 L 265.428,210.394 L 253.76,209.727 z"/><path id="path139" fill="none" stroke="#007da7" stroke-dasharray="none" stroke-linecap="butt" stroke-linejoin="miter" stroke-miterlimit="4" stroke-opacity="1" stroke-width="1" d="M 253.76,209.727 L 253.76,199.727 L 264.76,199.727 L 270.428,203.727 L 270.428,215.06 L 265.428,210.394 L 253.76,209.727 z"/><path id="path141" fill="none" stroke="#007da7" stroke-dasharray="none" stroke-linecap="butt" stroke-linejoin="miter" stroke-miterlimit="4" stroke-opacity="1" stroke-width="1" d="M 223.49,290.854 C 223.49,275.77 211.261,263.542 196.177,263.542 C 181.093,263.542 168.865,275.77 168.865,290.854 C 168.865,305.938 181.093,318.167 196.177,318.167 C 211.261,318.167 223.49,305.938 223.49,290.854 z"/><path id="path143" fill="none" stroke="#007da7" stroke-dasharray="none" stroke-linecap="butt" stroke-linejoin="miter" stroke-miterlimit="4" stroke-opacity="1" stroke-width="1" d="M 169.185,292.055 L 183.922,291.895 L 198.34,275.076 L 193.694,263.774 C 193.694,263.774 168.224,266.586 169.185,292.055 z"/><path id="path145" fill="none" stroke="#007da7" stroke-dasharray="none" stroke-linecap="butt" stroke-linejoin="miter" stroke-miterlimit="4" stroke-opacity="1" stroke-width="1" d="M 198.981,304.871 L 198.981,318.167 C 198.981,318.167 225.092,313.842 223.49,288.531 L 210.194,290.454 L 198.981,304.871 z"/><path id="path147" fill="#fff" fill-opacity="1" fill-rule="nonzero" stroke="none" d="M 213.718,289.493 C 213.718,280.822 206.475,273.794 197.54,273.794 C 188.603,273.794 181.36,280.822 181.36,289.493 C 181.36,298.163 188.603,305.191 197.54,305.191 C 206.475,305.191 213.718,298.163 213.718,289.493"/><path id="path149" fill="none" stroke="#007da7" stroke-dasharray="none" stroke-linecap="butt" stroke-linejoin="miter" stroke-miterlimit="4" stroke-opacity="1" stroke-width="1" d="M 213.718,289.493 C 213.718,280.822 206.475,273.794 197.54,273.794 C 188.603,273.794 181.36,280.822 181.36,289.493 C 181.36,298.163 188.603,305.191 197.54,305.191 C 206.475,305.191 213.718,298.163 213.718,289.493 z"/><path id="path151" fill="none" stroke="#007da7" stroke-dasharray="none" stroke-linecap="butt" stroke-linejoin="miter" stroke-miterlimit="4" stroke-opacity="1" stroke-width="1" d="M 184.723,299.603 L 207.47,276.856"/><path id="path153" fill="none" stroke="#007da7" stroke-dasharray="none" stroke-linecap="butt" stroke-linejoin="miter" stroke-miterlimit="4" stroke-opacity="1" stroke-width="1" d="M 208.111,301.205 L 186.004,279.099"/><path id="path155" fill="none" stroke="#007da7" stroke-dasharray="none" stroke-linecap="butt" stroke-linejoin="miter" stroke-miterlimit="4" stroke-opacity="1" stroke-width="1" d="M 181.199,289.832 L 213.237,289.832"/><path id="path157" fill="none" stroke="#007da7" stroke-dasharray="none" stroke-linecap="butt" stroke-linejoin="miter" stroke-miterlimit="4" stroke-opacity="1" stroke-width="1" d="M 196.737,305.53 L 196.737,273.973"/><path id="path159" fill="none" stroke="#007da7" stroke-dasharray="none" stroke-linecap="butt" stroke-linejoin="miter" stroke-miterlimit="4" stroke-opacity="1" stroke-width="1" d="M 190.17,303.128 L 202.985,274.454"/><path id="path161" fill="none" stroke="#007da7" stroke-dasharray="none" stroke-linecap="butt" stroke-linejoin="miter" stroke-miterlimit="4" stroke-opacity="1" stroke-width="1" d="M 203.275,303.869 L 190.2,275.314"/><path id="path163" fill="none" stroke="#007da7" stroke-dasharray="none" stroke-linecap="butt" stroke-linejoin="miter" stroke-miterlimit="4" stroke-opacity="1" stroke-width="1" d="M 182.321,284.225 L 212.917,295.919"/><path id="path165" fill="none" stroke="#007da7" stroke-dasharray="none" stroke-linecap="butt" stroke-linejoin="miter" stroke-miterlimit="4" stroke-opacity="1" stroke-width="1" d="M 212.294,282.213 L 182.141,295.689"/><path id="path167" fill="#007da7" fill-opacity="1" fill-rule="nonzero" stroke="none" d="M 209.548,288.775 C 209.548,282.538 204.337,277.483 197.909,277.483 C 191.483,277.483 186.273,282.538 186.273,288.775 C 186.273,295.011 191.483,300.066 197.909,300.066 C 204.337,300.066 209.548,295.011 209.548,288.775"/><path id="path169" fill="#fff" fill-opacity="1" fill-rule="nonzero" stroke="none" d="M 207.198,288.515 C 207.198,283.595 203.088,279.606 198.017,279.606 C 192.946,279.606 188.837,283.595 188.837,288.515 C 188.837,293.433 192.946,297.424 198.017,297.424 C 203.088,297.424 207.198,293.433 207.198,288.515"/><path id="path171" fill="none" stroke="#007da7" stroke-dasharray="none" stroke-linecap="butt" stroke-linejoin="miter" stroke-miterlimit="4" stroke-opacity="1" stroke-width="1" d="M 207.198,288.515 C 207.198,283.595 203.088,279.606 198.017,279.606 C 192.946,279.606 188.837,283.595 188.837,288.515 C 188.837,293.433 192.946,297.424 198.017,297.424 C 203.088,297.424 207.198,293.433 207.198,288.515 z"/><path id="path173" fill="none" stroke="#007da7" stroke-dasharray="none" stroke-linecap="butt" stroke-linejoin="miter" stroke-miterlimit="4" stroke-opacity="1" stroke-width="1" d="M 219.323,221.638 C 219.323,212.341 211.786,204.804 202.489,204.804 C 193.192,204.804 185.655,212.341 185.655,221.638 C 185.655,230.935 193.192,238.471 202.489,238.471 C 211.786,238.471 219.323,230.935 219.323,221.638 z"/><path id="path175" fill="#fffeff" fill-opacity="1" fill-rule="nonzero" stroke="none" d="M 199.564,216.604 L 171.37,204.611 C 171.37,204.611 170.649,201.875 172.217,200.946 L 203.949,213.364 C 203.949,213.364 206.421,209.585 211.288,210.443 L 235.993,185.292 C 235.993,185.292 239.165,186.653 239.499,189.321 L 215.216,214.346 C 215.216,214.346 217.171,218.053 213.294,221.835 L 227.604,255.669 C 227.604,255.669 225.772,260.366 222.165,256.919 L 207.557,223.634 L 202.573,228.139 C 202.573,228.139 194.823,229.722 196.823,221.805 L 200.561,217.784 L 199.564,216.604 z"/><path id="path177" fill="none" stroke="#007da7" stroke-dasharray="none" stroke-linecap="butt" stroke-linejoin="miter" stroke-miterlimit="4" stroke-opacity="1" stroke-width="1" d="M 199.564,216.604 L 171.37,204.611 C 171.37,204.611 170.649,201.875 172.217,200.946 L 203.949,213.364 C 203.949,213.364 206.421,209.585 211.288,210.443 L 235.993,185.292 C 235.993,185.292 239.165,186.653 239.499,189.321 L 215.216,214.346 C 215.216,214.346 217.171,218.053 213.294,221.835 L 227.604,255.669 C 227.604,255.669 225.772,260.366 222.165,256.919 L 207.557,223.634 L 202.573,228.139 C 202.573,228.139 194.823,229.722 196.823,221.805 L 200.561,217.784 L 199.564,216.604 z"/><path id="path179" fill="none" stroke="#007da7" stroke-dasharray="none" stroke-linecap="butt" stroke-linejoin="miter" stroke-miterlimit="4" stroke-opacity="1" stroke-width="1" d="M 213.325,216.411 C 213.325,214.233 211.561,212.471 209.385,212.471 C 207.21,212.471 205.446,214.233 205.446,216.411 C 205.446,218.588 207.21,220.349 209.385,220.349 C 211.561,220.349 213.325,218.588 213.325,216.411 z"/><path id="path181" fill="none" stroke="#007da7" stroke-dasharray="none" stroke-linecap="round" stroke-linejoin="miter" stroke-miterlimit="4" stroke-opacity="1" stroke-width=".5" d="M 256.06,685.768 C 256.06,685.768 251.939,693.634 241.078,691.387 C 241.078,691.387 221.601,685.018 224.223,644.007 C 224.223,644.007 225.535,620.036 244.261,621.908 C 244.261,621.908 258.494,627.152 260.367,653.931 C 260.367,653.931 262.801,671.348 256.06,685.768 z"/><path id="path183" fill="none" stroke="#007da7" stroke-dasharray="none" stroke-linecap="round" stroke-linejoin="miter" stroke-miterlimit="4" stroke-opacity="1" stroke-width=".5" d="M 244.431,621.994 C 225.704,620.121 224.392,644.092 224.392,644.092 C 221.771,685.104 241.248,691.471 241.248,691.471 C 241.248,691.471 227.202,677.801 228.138,645.59 C 228.138,645.59 227.951,632.294 235.629,624.615 L 244.431,621.994 z"/><path id="path185" fill="none" stroke="#007da7" stroke-dasharray="none" stroke-linecap="round" stroke-linejoin="miter" stroke-miterlimit="4" stroke-opacity="1" stroke-width=".5" d="M 228.513,655.721 L 247.56,655.182 L 252.314,667.415 L 240.685,690.141 C 240.685,690.141 230.759,682.987 228.513,655.721 z"/><path id="path187" fill="none" stroke="#007da7" stroke-dasharray="none" stroke-linecap="round" stroke-linejoin="miter" stroke-miterlimit="4" stroke-opacity="1" stroke-width=".5" d="M 251.81,641.432 L 252.994,642.558 L 244.431,621.994 L 236.81,624.182 L 251.81,641.432 z"/><path id="path189" fill="none" stroke="#007da7" stroke-dasharray="none" stroke-linecap="round" stroke-linejoin="miter" stroke-miterlimit="4" stroke-opacity="1" stroke-width=".5" d="M 255.81,666.182 L 260.179,667.228 C 260.179,667.228 261.49,672.471 256.06,685.206 L 255.81,666.182 z"/><path id="path191" fill="#fff" fill-opacity="1" fill-rule="nonzero" stroke="none" d="M 252.314,667.415 L 265.611,667.415 C 265.611,667.415 270.854,660.112 268.795,651.872 C 268.795,651.872 267.109,642.883 261.49,641.01 L 249.879,641.01 C 249.879,641.01 238.457,656.554 252.314,667.415"/><path id="path193" fill="none" stroke="#007da7" stroke-dasharray="none" stroke-linecap="round" stroke-linejoin="miter" stroke-miterlimit="4" stroke-opacity="1" stroke-width=".5" d="M 252.314,667.415 L 265.611,667.415 C 265.611,667.415 270.854,660.112 268.795,651.872 C 268.795,651.872 267.109,642.883 261.49,641.01 L 249.879,641.01 C 249.879,641.01 238.457,656.554 252.314,667.415 z"/><path id="path195" fill="none" stroke="#007da7" stroke-dasharray="none" stroke-linecap="round" stroke-linejoin="miter" stroke-miterlimit="4" stroke-opacity="1" stroke-width=".5" d="M 265.611,666.853 C 265.611,666.853 256.434,664.794 256.247,652.059 C 256.247,652.059 256.996,643.07 261.49,641.01 C 261.49,641.01 267.671,642.883 269.169,654.119 C 269.169,654.119 270.105,661.797 265.611,666.853 z"/><path id="path197" fill="none" stroke="#007da7" stroke-dasharray="none" stroke-linecap="round" stroke-linejoin="miter" stroke-miterlimit="4" stroke-opacity="1" stroke-width=".5" d="M 246.134,653.182 L 255.31,653.182"/><path id="path199" fill="none" stroke="#007da7" stroke-dasharray="none" stroke-linecap="round" stroke-linejoin="miter" stroke-miterlimit="4" stroke-opacity="1" stroke-width=".5" d="M 246.134,657.303 L 256.434,657.303"/><path id="path201" fill="none" stroke="#007da7" stroke-dasharray="none" stroke-linecap="round" stroke-linejoin="miter" stroke-miterlimit="4" stroke-opacity="1" stroke-width=".5" d="M 247.632,661.048 L 257.558,661.048"/><path id="path203" fill="none" stroke="#007da7" stroke-dasharray="none" stroke-linecap="round" stroke-linejoin="miter" stroke-miterlimit="4" stroke-opacity="1" stroke-width=".5" d="M 249.693,664.231 L 260.554,664.231"/><path id="path205" fill="none" stroke="#007da7" stroke-dasharray="none" stroke-linecap="round" stroke-linejoin="miter" stroke-miterlimit="4" stroke-opacity="1" stroke-width=".5" d="M 247.07,648.688 L 256.434,648.688"/><path id="path207" fill="none" stroke="#007da7" stroke-dasharray="none" stroke-linecap="round" stroke-linejoin="miter" stroke-miterlimit="4" stroke-opacity="1" stroke-width=".5" d="M 249.318,645.317 L 255.873,645.317"/><path id="path209" fill="none" stroke="#007da7" stroke-dasharray="none" stroke-linecap="round" stroke-linejoin="miter" stroke-miterlimit="4" stroke-opacity="1" stroke-width=".5" d="M 249.505,642.134 L 257.371,642.134"/><text id="text235" x="486.074" y="-364.836" transform="scale(1,-1)"><tspan id="tspan237" x="486.074 498.434 508.825 517.914 528.25 539.111 550.549 555.501" y="-364.836" fill="#007da7" fill-opacity="1" fill-rule="nonzero" stroke="none" font-family="Verdana" font-size="18.07" font-stretch="normal" font-variant="normal" font-weight="normal" writing-mode="lr-tb" style="-inkscape-font-specification:Verdana">SFLvault</tspan></text><path stroke-width="1.5" style="marker:none" id="path3334" fill="none" fill-opacity="1" fill-rule="nonzero" stroke="#007da7" stroke-dasharray="none" stroke-dashoffset="0" stroke-linecap="round" stroke-linejoin="miter" stroke-miterlimit="4" stroke-opacity="1" marker-end="none" marker-mid="none" marker-start="none" d="M 609.87959,420.20908 A 3.5355339,3.5355339 0 1 1 602.80852,420.20908 A 3.5355339,3.5355339 0 1 1 609.87959,420.20908 z" display="inline" enable-background="accumulate" opacity="1" overflow="visible" transform="matrix(1.28,0,0,-1.28,-427.33025,1075.9918)" visibility="visible"/><path stroke-width="1.5" style="marker:none" id="path3332" fill="none" fill-opacity="1" fill-rule="nonzero" stroke="#007da7" stroke-dasharray="none" stroke-dashoffset="0" stroke-linecap="round" stroke-linejoin="miter" stroke-miterlimit="4" stroke-opacity="1" marker-end="none" marker-mid="none" marker-start="none" d="M 609.87959,420.20908 A 3.5355339,3.5355339 0 1 1 602.80852,420.20908 A 3.5355339,3.5355339 0 1 1 609.87959,420.20908 z" display="inline" enable-background="accumulate" opacity="1" overflow="visible" transform="matrix(1.28,0,0,-1.28,-426.19888,1099.4677)" visibility="visible"/><path id="path271" fill="none" stroke="#007da7" stroke-dasharray="none" stroke-linecap="butt" stroke-linejoin="miter" stroke-miterlimit="4" stroke-opacity="1" stroke-width="1" d="M 424.594,207.052 C 418.673,207.052 411.409,211.246 408.447,216.373 L 385.606,255.935 C 382.643,261.064 382.643,269.452 385.606,274.579 L 408.447,314.143 C 411.409,319.27 418.673,323.466 424.594,323.466 L 470.276,323.466 C 476.2,323.466 483.464,319.27 486.423,314.143 L 509.264,274.579 C 512.223,269.452 512.223,261.064 509.264,255.935 L 486.423,216.373 C 483.464,211.246 476.2,207.052 470.276,207.052 L 424.594,207.052 z"/><g id="g273" transform="translate(-332.8,-688)"><g id="g275"><g id="g281"><g id="g283"><path id="path293" fill="url(#linearGradient2840)" stroke="none" d="M 758.612,853.364 C 752.691,853.364 745.426,854.708 742.464,856.349 L 719.623,869.015 C 716.662,870.655 716.662,873.341 719.623,874.981 L 742.464,887.649 C 745.426,889.29 752.691,890.632 758.612,890.632 L 804.294,890.632 C 810.217,890.632 817.482,889.29 820.44,887.649 L 843.281,874.981 C 846.24,873.341 846.24,870.655 843.281,869.015 L 820.44,856.349 C 817.482,854.708 810.217,853.364 804.294,853.364 L 758.612,853.364 z"/></g></g></g></g><text id="text295" x="423.971" y="-95.498" transform="scale(1,-1)"><tspan id="tspan297" x="423.971 436.332 446.722 455.812 466.148 477.008 488.447 493.398" y="-95.498" fill="#007da7" fill-opacity="1" fill-rule="nonzero" stroke="none" font-family="Verdana" font-size="18.07" font-stretch="normal" font-variant="normal" font-weight="normal" writing-mode="lr-tb" style="-inkscape-font-specification:Verdana">SFLvault</tspan></text><path id="path299" fill="#007da7" fill-opacity="1" fill-rule="nonzero" stroke="none" d="M 411.88846,299.38359 L 420.75419,292.37489 L 424.19325,222.32611 L 414.93057,241.72327 L 411.88846,299.38359 z"/><path id="path301" fill="#007da7" fill-opacity="1" fill-rule="nonzero" stroke="none" d="M 422.19911,292.37489 L 425.50835,222.32611 L 480.55484,229.82024 L 481.87741,295.2846 L 422.19911,292.37489 z"/><path id="path303" fill="#007da7" fill-opacity="1" fill-rule="nonzero" stroke="none" d="M 413.06813,300.69703 L 421.93385,293.95343 L 481.21706,296.72966 L 462.42644,302.54909 L 413.06813,300.69703 z"/><path id="path305" fill="none" stroke="#fff" stroke-dasharray="none" stroke-linecap="butt" stroke-linejoin="miter" stroke-miterlimit="4" stroke-opacity="1" stroke-width="2" d="M 427.35022,286.73377 L 477.10455,289.59774 L 476.57496,234.66324 L 429.73291,227.37355 L 427.35022,286.73377 z"/><path id="path307" fill="none" stroke="#007da7" stroke-dasharray="none" stroke-linecap="butt" stroke-linejoin="miter" stroke-miterlimit="4" stroke-opacity="1" stroke-width="1" d="M 471.22302,259.0014 C 471.22302,249.44145 463.46412,241.68594 453.89601,241.68594 C 444.32791,241.68594 436.56994,249.44145 436.56994,259.0014 C 436.56994,268.56696 444.32791,276.31966 453.89601,276.31966 C 463.46412,276.31966 471.22302,268.56696 471.22302,259.0014 z"/><path id="path309" fill="none" stroke="#007da7" stroke-dasharray="none" stroke-linecap="butt" stroke-linejoin="miter" stroke-miterlimit="4" stroke-opacity="1" stroke-width="1" d="M 436.77355,259.76314 L 446.12216,259.66325 L 455.26902,248.99897 L 452.32219,241.83344 C 452.32219,241.83344 436.16457,243.61642 436.77355,259.76314 z"/><path id="path311" fill="none" stroke="#007da7" stroke-dasharray="none" stroke-linecap="butt" stroke-linejoin="miter" stroke-miterlimit="4" stroke-opacity="1" stroke-width="1" d="M 455.67532,267.88831 L 455.67532,276.31966 C 455.67532,276.31966 472.2383,273.57705 471.22302,257.53021 L 462.78695,258.74842 L 455.67532,267.88831 z"/><path id="path313" fill="#fff" fill-opacity="1" fill-rule="nonzero" stroke="none" d="M 466.70518,258.16404 C 466.70518,251.75278 461.34671,246.55319 454.73571,246.55319 C 448.12191,246.55319 442.76344,251.75278 442.76344,258.16404 C 442.76344,264.57438 448.12191,269.77209 454.73571,269.77209 C 461.34671,269.77209 466.70518,264.57438 466.70518,258.16404"/><path id="path315" fill="none" stroke="#007da7" stroke-dasharray="none" stroke-linecap="butt" stroke-linejoin="miter" stroke-miterlimit="4" stroke-opacity="1" stroke-width="1" d="M 466.70517,258.16405 C 466.70517,251.75279 461.34669,246.5532 454.7357,246.5532 C 448.1219,246.5532 442.76343,251.75279 442.76343,258.16405 C 442.76343,264.57439 448.1219,269.77211 454.7357,269.77211 C 461.34669,269.77211 466.70517,264.57439 466.70517,258.16405 z"/><path id="path317" fill="none" stroke="#007da7" stroke-dasharray="none" stroke-linecap="butt" stroke-linejoin="miter" stroke-miterlimit="4" stroke-opacity="1" stroke-width="1" d="M 462.80377,266.40778 L 446.44907,250.06036"/><path id="path319" fill="none" stroke="#007da7" stroke-dasharray="none" stroke-linecap="butt" stroke-linejoin="miter" stroke-miterlimit="4" stroke-opacity="1" stroke-width="1" d="M 442.89512,257.99789 L 466.59962,257.99789"/><path id="path321" fill="none" stroke="#007da7" stroke-dasharray="none" stroke-linecap="butt" stroke-linejoin="miter" stroke-miterlimit="4" stroke-opacity="1" stroke-width="1" d="M 454.39104,269.60594 L 454.39104,246.27035"/><path id="path323" fill="none" stroke="#007da7" stroke-dasharray="none" stroke-linecap="butt" stroke-linejoin="miter" stroke-miterlimit="4" stroke-opacity="1" stroke-width="1" d="M 446.11656,265.50042 L 462.42642,248.95603"/><path id="path325" fill="#007da7" fill-opacity="1" fill-rule="nonzero" stroke="none" d="M 462.37787,257.68423 C 462.37787,253.72993 459.07237,250.52523 454.99537,250.52523 C 450.91744,250.52523 447.61474,253.72993 447.61474,257.68423 C 447.61474,261.63666 450.91744,264.84136 454.99537,264.84136 C 459.07237,264.84136 462.37787,261.63666 462.37787,257.68423"/><path id="path327" fill="#fff" fill-opacity="1" fill-rule="nonzero" stroke="none" d="M 460.88624,257.51993 C 460.88624,254.39924 458.27939,251.87133 455.06449,251.87133 C 451.84772,251.87133 449.24087,254.39924 449.24087,257.51993 C 449.24087,260.63875 451.84772,263.16666 455.06449,263.16666 C 458.27939,263.16666 460.88624,260.63875 460.88624,257.51993"/><path id="path329" fill="none" stroke="#007da7" stroke-dasharray="none" stroke-linecap="butt" stroke-linejoin="miter" stroke-miterlimit="4" stroke-opacity="1" stroke-width="1" d="M 460.88622,257.51994 C 460.88622,254.39926 458.27937,251.87134 455.06447,251.87134 C 451.84771,251.87134 449.24086,254.39926 449.24086,257.51994 C 449.24086,260.63876 451.84771,263.16667 455.06447,263.16667 C 458.27937,263.16667 460.88622,260.63876 460.88622,257.51994 z"/><g id="g3395"><path id="path211" fill="#007da7" fill-opacity="1" fill-rule="nonzero" stroke="none" d="M 433.841,475.852 C 427.92,475.852 420.655,480.046 417.694,485.173 L 394.854,524.735 C 391.891,529.864 391.891,538.252 394.854,543.379 L 417.694,582.943 C 420.655,588.07 427.92,592.266 433.841,592.266 L 479.523,592.266 C 485.447,592.266 492.711,588.07 495.67,582.943 L 518.512,543.379 C 521.471,538.252 521.471,529.864 518.512,524.735 L 495.67,485.173 C 492.711,480.046 485.447,475.852 479.523,475.852 L 433.841,475.852 z"/><path id="path3376" fill="none" fill-rule="evenodd" stroke="#fff" stroke-dasharray="none" stroke-linecap="butt" stroke-linejoin="miter" stroke-miterlimit="4" stroke-opacity="1" stroke-width="3" d="M 585.13086,401.82431 C 598.56589,417.0271 599.9801,418.44132 599.9801,418.44132" transform="matrix(0.8,0,0,-0.8,0,841.89)"/><path stroke-width="2.463" style="marker:none" id="path2550" fill="none" fill-opacity="1" fill-rule="nonzero" stroke="#fff" stroke-dasharray="none" stroke-dashoffset="0" stroke-linecap="round" stroke-linejoin="miter" stroke-miterlimit="4" stroke-opacity="1" marker-end="none" marker-mid="none" marker-start="none" d="M 634.98187,437.17966 A 49.674252,36.416 0 1 1 535.63337,437.17966 A 49.674252,36.416 0 1 1 634.98187,437.17966 z" display="inline" enable-background="accumulate" opacity="1" overflow="visible" transform="matrix(0.9020812,0.3670409,0.3667873,-0.9036139,-231.13171,714.29713)" visibility="visible"/><g id="g213" transform="translate(-160,-419.2)"><g id="g221"><g id="g223"><path id="path233" fill="url(#linearGradient3381)" stroke="none" d="M 595.06,853.364 C 589.139,853.364 581.873,854.708 578.911,856.349 L 556.07,869.015 C 553.109,870.655 553.109,873.341 556.07,874.981 L 578.911,887.649 C 581.873,889.29 589.139,890.632 595.06,890.632 L 640.741,890.632 C 646.664,890.632 653.93,889.29 656.888,887.649 L 679.729,874.981 C 682.688,873.341 682.688,870.655 679.729,869.015 L 656.888,856.349 C 653.93,854.708 646.664,853.364 640.741,853.364 L 595.06,853.364 z"/></g></g></g><path stroke-width="1.543" style="marker:none" id="path3322" fill="#fff" fill-opacity="1" fill-rule="nonzero" stroke="#007da7" stroke-dasharray="none" stroke-dashoffset="0" stroke-linecap="round" stroke-linejoin="miter" stroke-miterlimit="4" stroke-opacity="1" marker-end="none" marker-mid="none" marker-start="none" d="M 609.87959,420.20908 A 3.5355339,3.5355339 0 1 1 602.80852,420.20908 A 3.5355339,3.5355339 0 1 1 609.87959,420.20908 z" display="inline" enable-background="accumulate" opacity="1" overflow="visible" transform="matrix(1.4,0,0,-1.4,-368.47333,1095.0054)" visibility="visible"/><rect stroke-miterlimit="4" style="marker:none" id="rect3336" width="34.507" height="18.385" x="536.232" y="-439.701" fill="#007da7" fill-opacity="1" fill-rule="nonzero" stroke="#007da7" stroke-dasharray="none" stroke-dashoffset="0" stroke-linecap="round" stroke-linejoin="miter" stroke-opacity="1" stroke-width="1.92" marker-end="none" marker-mid="none" marker-start="none" display="inline" enable-background="accumulate" opacity="1" overflow="visible" transform="matrix(0.9828874,0.1842076,0.1842076,-0.9828874,0,0)" visibility="visible"/><g id="g2532" transform="matrix(0.5473801,0,0,0.5473801,203.59849,245.02749)"><path id="path239" fill="#fff" fill-opacity="1" fill-rule="nonzero" stroke="none" d="M 422.32664,568.18359 L 431.19143,561.17489 L 434.63236,491.12611 L 425.36968,510.52327 L 422.32664,568.18359 z"/><path id="path241" fill="#fff" fill-opacity="1" fill-rule="nonzero" stroke="none" d="M 432.63729,561.17489 L 435.94652,491.12611 L 490.99208,498.62024 L 492.31558,564.0846 L 432.63729,561.17489 z"/><path id="path243" fill="#fff" fill-opacity="1" fill-rule="nonzero" stroke="none" d="M 423.50631,569.49703 L 432.37296,562.75343 L 491.65523,565.52966 L 472.86368,571.34909 L 423.50631,569.49703 z"/><path id="path245" fill="none" stroke="#007da7" stroke-dasharray="none" stroke-linecap="butt" stroke-linejoin="miter" stroke-miterlimit="4" stroke-opacity="1" stroke-width="1.827" d="M 437.7884,555.53377 L 487.54273,558.39774 L 487.01407,503.46324 L 440.17109,496.17355 L 437.7884,555.53377 z"/><path id="path247" fill="none" stroke="#007da7" stroke-dasharray="none" stroke-linecap="butt" stroke-linejoin="miter" stroke-miterlimit="4" stroke-opacity="1" stroke-width="1.827" d="M 481.66027,527.8014 C 481.66027,518.24145 473.90323,510.48594 464.33419,510.48594 C 454.76609,510.48594 447.00905,518.24145 447.00905,527.8014 C 447.00905,537.36696 454.76609,545.11966 464.33419,545.11966 C 473.90323,545.11966 481.66027,537.36696 481.66027,527.8014 z"/><path id="path249" fill="none" stroke="#007da7" stroke-dasharray="none" stroke-linecap="butt" stroke-linejoin="miter" stroke-miterlimit="4" stroke-opacity="1" stroke-width="1.827" d="M 447.21173,528.56314 L 456.56034,528.46325 L 465.70627,517.79897 L 462.76037,510.63344 C 462.76037,510.63344 446.60275,512.41642 447.21173,528.56314 z"/><path id="path251" fill="none" stroke="#007da7" stroke-dasharray="none" stroke-linecap="butt" stroke-linejoin="miter" stroke-miterlimit="4" stroke-opacity="1" stroke-width="1.827" d="M 466.11443,536.68831 L 466.11443,545.11966 C 466.11443,545.11966 482.67555,542.37705 481.66027,526.33021 L 473.22513,527.54842 L 466.11443,536.68831 z"/><path id="path253" fill="#fff" fill-opacity="1" fill-rule="nonzero" stroke="none" d="M 475.46119,526.93884 C 475.46119,521.4424 470.86674,516.98495 465.19911,516.98495 C 459.5296,516.98495 454.93516,521.4424 454.93516,526.93884 C 454.93516,532.43528 459.5296,536.89086 465.19911,536.89086 C 470.86674,536.89086 475.46119,532.43528 475.46119,526.93884"/><path id="path255" fill="none" stroke="#007da7" stroke-dasharray="none" stroke-linecap="butt" stroke-linejoin="miter" stroke-miterlimit="4" stroke-opacity="1" stroke-width="1.827" d="M 475.46118,526.93885 C 475.46118,521.44241 470.86673,516.98496 465.19909,516.98496 C 459.52959,516.98496 454.93515,521.44241 454.93515,526.93885 C 454.93515,532.43529 459.52959,536.89088 465.19909,536.89088 C 470.86673,536.89088 475.46118,532.43529 475.46118,526.93885 z"/><path id="path257" fill="none" stroke="#007da7" stroke-dasharray="none" stroke-linecap="butt" stroke-linejoin="miter" stroke-miterlimit="4" stroke-opacity="1" stroke-width="1.827" d="M 471.90443,534.36483 L 457.88105,520.34835"/><path id="path259" fill="none" stroke="#007da7" stroke-dasharray="none" stroke-linecap="butt" stroke-linejoin="miter" stroke-miterlimit="4" stroke-opacity="1" stroke-width="1.827" d="M 454.83427,527.15356 L 475.15668,527.15356"/><path id="path261" fill="none" stroke="#007da7" stroke-dasharray="none" stroke-linecap="butt" stroke-linejoin="miter" stroke-miterlimit="4" stroke-opacity="1" stroke-width="1.827" d="M 464.68912,537.10745 L 464.68912,517.09978"/><path id="path263" fill="none" stroke="#007da7" stroke-dasharray="none" stroke-linecap="butt" stroke-linejoin="miter" stroke-miterlimit="4" stroke-opacity="1" stroke-width="1.827" d="M 457.5971,533.58629 L 471.57845,519.40272"/><path id="path265" fill="#007da7" fill-opacity="1" fill-rule="nonzero" stroke="none" d="M 472.81604,526.48423 C 472.81604,522.52993 469.51054,519.32523 465.43355,519.32523 C 461.35561,519.32523 458.05292,522.52993 458.05292,526.48423 C 458.05292,530.43666 461.35561,533.64136 465.43355,533.64136 C 469.51054,533.64136 472.81604,530.43666 472.81604,526.48423"/><path id="path267" fill="#fff" fill-opacity="1" fill-rule="nonzero" stroke="none" d="M 471.32441,526.31993 C 471.32441,523.19924 468.71849,520.67133 465.50266,520.67133 C 462.28496,520.67133 459.67905,523.19924 459.67905,526.31993 C 459.67905,529.43875 462.28496,531.96666 465.50266,531.96666 C 468.71849,531.96666 471.32441,529.43875 471.32441,526.31993"/><path id="path269" fill="none" stroke="#007da7" stroke-dasharray="none" stroke-linecap="butt" stroke-linejoin="miter" stroke-miterlimit="4" stroke-opacity="1" stroke-width="1.827" d="M 471.3244,526.31994 C 471.3244,523.19926 468.71848,520.67134 465.50265,520.67134 C 462.28495,520.67134 459.67903,523.19926 459.67903,526.31994 C 459.67903,529.43876 462.28495,531.96667 465.50265,531.96667 C 468.71848,531.96667 471.3244,529.43876 471.3244,526.31994 z"/></g><use id="use3340" width="744.095" height="1052.362" x="0" y="0" transform="translate(-37.232294,-9.8994953)" xlink:href="#path3322"/><use id="use3354" width="744.095" height="1052.362" x="0" y="0" transform="translate(22.275945,27.819804)" xlink:href="#path3322"/><use id="use3358" width="744.095" height="1052.362" x="0" y="0" transform="translate(9.6710675,58.694025)" xlink:href="#path3322"/><use id="use3360" width="744.095" height="1052.362" x="0" y="0" transform="translate(-69.047937,12.216652)" xlink:href="#path3322"/><use id="use3362" width="744.095" height="1052.362" x="0" y="0" transform="translate(-60.52834,42.992092)" xlink:href="#path3322"/><use id="use3364" width="744.095" height="1052.362" x="0" y="0" transform="translate(-23.193102,63.922453)" xlink:href="#path3322"/><path stroke-width="1.458" style="marker:none" id="path3393" fill="#fff" fill-opacity="1" fill-rule="nonzero" stroke="#007da7" stroke-dasharray="none" stroke-dashoffset="0" stroke-linecap="round" stroke-linejoin="miter" stroke-miterlimit="4" stroke-opacity="1" marker-end="none" marker-mid="none" marker-start="none" d="M 609.87959,420.20908 A 3.5355339,3.5355339 0 1 1 602.80852,420.20908 A 3.5355339,3.5355339 0 1 1 609.87959,420.20908 z" display="inline" enable-background="accumulate" opacity="1" overflow="visible" transform="matrix(1.92,0,0,-1.92,-683.20656,1312.6656)" visibility="visible"/></g></g></svg>